<svg xmlns="http://www.w3.org/2000/svg" width="955" height="925" viewBox="0 0 955 925">
<g>
<path d="M 686.49 673.93 C678.61,676.37 659.65,676.69 651.78,674.52 C645.36,672.75 634.24,666.99 628.25,662.34 C619.44,655.48 611.00,642.52 607.52,630.50 C605.04,621.90 605.02,602.43 607.49,595.00 C610.94,584.64 619.37,571.48 626.69,565.04 C632.19,560.20 644.95,553.82 653.00,551.88 C659.54,550.30 679.32,550.36 686.50,551.98 C706.95,556.59 723.85,574.64 728.57,596.93 C730.40,605.55 730.37,620.26 728.51,628.28 C723.54,649.74 707.14,667.55 686.49,673.93 ZM 324.02 675.00 C311.36,677.40 300.04,675.25 289.50,668.47 C259.11,648.89 261.68,604.63 294.13,588.59 C300.39,585.49 303.15,584.73 309.82,584.28 C330.08,582.89 347.22,591.68 355.86,607.89 C361.43,618.34 362.20,633.90 357.73,646.00 C352.41,660.43 338.72,672.21 324.02,675.00 ZM 793.64 674.41 C783.14,676.54 779.06,676.37 767.00,673.34 C761.25,671.89 756.42,669.73 745.80,663.82 C742.31,661.89 738.00,658.02 738.00,656.84 C738.00,656.15 746.49,645.53 750.60,641.08 C751.73,639.86 752.76,640.23 757.71,643.66 C764.58,648.42 769.53,650.46 777.74,651.95 C786.48,653.54 791.15,652.50 796.51,647.79 C800.31,644.44 801.00,643.27 800.98,640.17 C800.94,633.24 796.90,630.45 778.28,624.45 C770.87,622.06 763.74,619.40 762.44,618.55 C761.14,617.70 759.49,617.00 758.79,616.99 C756.59,616.98 748.03,608.98 746.10,605.14 C740.08,593.15 741.48,576.92 749.46,566.47 C760.36,552.18 790.48,547.27 809.50,556.69 C815.02,559.43 822.87,565.49 823.70,567.67 C824.00,568.44 822.23,571.64 819.77,574.78 C817.31,577.93 814.77,581.51 814.12,582.75 C812.50,585.82 809.72,585.57 805.64,581.99 C799.49,576.59 793.51,574.52 784.00,574.51 C777.21,574.50 774.92,574.89 772.61,576.45 C769.45,578.59 767.00,583.45 767.00,587.57 C767.00,593.33 774.52,597.84 794.29,603.92 C803.54,606.77 814.80,612.45 818.84,616.31 C824.42,621.62 827.00,628.17 826.99,636.94 C826.97,648.63 823.89,656.42 816.40,663.74 C812.19,667.86 801.68,672.79 793.64,674.41 ZM 241.16 630.06 L 241.50 674.50 L 232.50 674.60 C227.55,674.65 221.81,674.51 219.75,674.29 L 216.00 673.88 L 215.97 637.69 C215.94,603.08 215.35,578.93 214.47,576.25 C214.17,575.31 209.67,575.00 196.53,575.00 L 179.00 575.00 L 179.00 553.19 L 184.03 552.85 C186.80,552.66 208.64,552.65 232.57,552.82 L 276.07 553.15 L 275.78 563.82 L 275.50 574.50 L 258.82 574.77 L 242.14 575.05 L 241.48 580.34 C241.11,583.25 240.97,605.62 241.16,630.06 ZM 656.72 650.00 C664.02,652.30 672.13,652.45 678.97,650.42 C686.04,648.32 693.64,641.12 698.45,631.96 C701.51,626.14 702.19,623.70 702.66,616.76 C703.26,607.98 702.04,598.99 699.52,593.68 C696.81,587.98 689.47,580.57 683.58,577.59 C678.74,575.13 676.69,574.71 669.21,574.61 C658.05,574.47 651.42,576.76 645.01,583.00 C638.37,589.47 635.16,596.67 633.90,607.97 C632.58,619.78 634.35,628.06 640.08,636.89 C644.86,644.23 649.17,647.63 656.72,650.00 ZM 306.20 651.33 C310.46,653.43 318.26,653.45 322.63,651.37 C327.40,649.11 332.58,642.72 333.90,637.50 C338.37,619.74 327.66,604.05 312.77,606.53 C303.72,608.04 298.54,612.39 295.48,621.06 C291.45,632.47 296.42,646.51 306.20,651.33 ZM 498.21 622.81 C497.20,631.76 491.00,634.44 491.00,625.92 C491.00,620.22 492.13,615.59 493.13,617.17 C493.74,618.14 493.97,618.16 493.98,617.27 C494.00,616.34 494.58,616.31 496.37,617.12 C498.48,618.09 498.68,618.68 498.21,622.81 Z" fill="rgb(16,17,16)"/>
<path d="M 493.19 731.03 C474.34,735.20 456.31,731.93 440.49,721.46 C434.36,717.41 421.70,704.91 419.57,700.79 C418.91,699.53 417.62,697.35 416.70,695.95 C414.80,693.04 411.06,682.38 411.02,679.75 C411.00,678.16 409.56,678.00 395.00,678.00 L 379.00 678.00 L 379.00 550.00 L 409.90 550.00 L 410.20 437.75 C410.40,363.73 410.16,325.25 409.50,324.77 C408.95,324.36 374.66,324.02 333.30,324.02 L 258.09 324.00 L 251.59 321.64 C225.65,312.22 210.00,291.00 210.00,265.23 C210.00,254.93 211.19,249.81 216.04,239.30 C223.00,224.21 236.54,212.60 253.50,207.19 C257.92,205.78 271.33,205.55 370.00,205.24 C485.90,204.86 494.15,205.09 505.55,209.02 C521.57,214.53 538.32,231.44 544.65,248.50 C546.42,253.28 546.51,260.61 546.76,417.25 L 547.02 581.00 L 543.57 581.00 C541.67,581.00 539.86,581.41 539.55,581.91 C539.24,582.42 537.30,583.12 535.24,583.48 C529.68,584.46 517.77,590.91 512.57,595.77 C510.06,598.12 508.00,600.43 508.00,600.90 C508.00,601.37 507.25,602.37 506.33,603.13 C505.41,603.88 503.30,607.42 501.64,611.00 C499.02,616.65 498.57,618.91 498.20,628.26 C497.83,637.77 498.05,639.69 500.09,644.76 C507.23,662.52 516.90,670.52 537.06,675.34 C545.76,677.42 546.00,677.55 546.00,680.37 C546.00,691.53 534.24,708.89 519.50,719.49 C511.42,725.31 503.61,728.73 493.19,731.03 ZM 471.00 496.08 C487.35,498.41 500.72,494.56 509.26,485.06 C510.54,483.64 511.61,482.62 512.50,481.46 C517.07,475.55 517.04,466.10 516.81,381.44 C516.80,375.49 516.78,369.17 516.76,362.45 L 516.50 255.50 L 513.53 249.64 C510.38,243.42 504.35,237.40 498.23,234.35 C495.09,232.79 492.09,232.50 479.33,232.50 C465.17,232.50 463.96,232.65 461.12,234.75 C459.45,235.99 457.65,237.00 457.12,237.00 C456.60,237.00 453.72,239.71 450.73,243.01 C446.32,247.88 444.87,250.41 443.14,256.26 C441.01,263.46 440.99,264.07 441.00,367.55 L 441.00 471.61 L 443.56 476.75 C444.97,479.58 447.79,483.53 449.81,485.53 C454.75,490.39 464.25,495.12 471.00,496.08 ZM 383.69 674.36 C384.46,675.13 422.64,674.42 433.50,673.43 C440.15,672.83 449.71,670.63 452.99,668.94 C453.82,668.52 455.94,667.63 457.70,666.98 C465.20,664.21 479.94,649.81 484.71,640.59 C490.18,630.02 492.65,610.22 490.04,597.71 C487.96,587.67 481.84,576.97 474.11,569.82 C458.64,555.52 446.56,552.96 398.25,553.75 L 383.00 554.00 L 383.00 613.83 C383.00,646.74 383.31,673.98 383.69,674.36 ZM 436.45 647.92 C428.37,649.87 411.72,651.39 410.61,650.28 C410.27,649.94 410.00,633.49 410.00,613.73 L 410.00 577.79 L 425.25 578.16 C438.72,578.49 441.05,578.80 445.24,580.85 C451.31,583.82 457.33,590.67 460.16,597.85 C463.32,605.84 463.31,621.30 460.14,628.38 C455.22,639.39 448.37,645.03 436.45,647.92 ZM 546.77 630.17 C546.60,644.50 546.12,653.45 545.50,653.64 C543.58,654.24 535.47,649.86 531.72,646.21 C527.69,642.29 525.00,635.41 525.01,629.07 C525.02,617.53 534.08,607.00 543.99,607.00 L 547.04 607.00 ZM 498.21 622.81 C498.68,618.68 498.48,618.09 496.37,617.12 C494.58,616.31 494.00,616.34 493.98,617.27 C493.97,618.16 493.74,618.14 493.13,617.17 C492.13,615.59 491.00,620.22 491.00,625.92 C491.00,634.44 497.20,631.76 498.21,622.81 ZM 562.00 653.08 C562.00,654.23 559.94,654.25 558.17,653.12 C557.05,652.42 557.05,652.20 558.17,651.79 C559.86,651.16 562.00,651.89 562.00,653.08 Z" fill="rgb(31,84,71)"/>
<path d="M 545.46 684.83 C545.82,683.26 546.00,681.77 546.00,680.37 C546.00,677.55 545.76,677.42 537.06,675.34 C536.72,675.26 536.38,675.17 536.04,675.09 C538.47,675.60 540.78,675.94 542.25,675.96 L 547.00 676.00 L 547.00 655.30 L 551.24 653.40 C556.86,650.88 561.68,646.56 564.06,641.88 C566.64,636.83 566.67,626.07 564.12,620.50 C561.96,615.77 552.90,607.00 550.19,607.00 C548.59,607.00 548.18,606.00 547.64,600.85 C547.29,597.47 547.00,591.85 547.00,588.35 L 547.00 582.00 L 543.75 582.01 C542.09,582.02 540.21,582.26 538.19,582.70 C538.90,582.43 539.41,582.15 539.55,581.91 C539.86,581.41 541.67,581.00 543.57,581.00 L 547.02 581.00 L 546.76 417.25 C546.51,260.61 546.42,253.28 544.65,248.50 C538.32,231.44 521.57,214.53 505.55,209.02 C494.15,205.09 485.90,204.86 370.00,205.24 C283.83,205.51 262.69,205.72 255.77,206.71 C256.70,206.36 257.50,205.97 257.91,205.63 C258.95,204.79 316.22,204.55 478.29,204.70 C493.12,204.71 506.98,204.73 519.94,204.74 C693.95,204.87 704.94,204.88 713.83,209.20 C715.09,209.81 716.31,210.51 717.95,211.31 C725.56,215.02 735.96,224.73 741.18,233.00 C747.28,242.68 751.00,254.99 751.00,265.52 C751.00,270.17 747.74,283.86 745.67,287.88 C738.45,301.94 729.37,311.37 716.43,318.24 C714.80,319.10 713.44,319.83 712.04,320.45 C704.01,324.00 694.42,324.00 626.24,324.00 L 548.00 324.00 L 548.00 452.53 C548.00,554.51 548.26,581.13 549.25,581.40 C549.94,581.59 553.20,582.24 556.50,582.86 C565.80,584.59 576.07,590.13 581.72,596.48 C589.25,604.93 594.01,615.04 594.68,624.06 C596.34,646.12 587.25,662.81 568.62,671.93 C564.15,674.12 557.50,676.47 553.84,677.17 L 547.18 678.42 ZM 471.00 496.08 C464.25,495.12 454.75,490.39 449.81,485.53 C447.79,483.53 444.97,479.58 443.56,476.75 L 441.00 471.61 L 441.00 367.55 C441.00,356.61 441.00,346.81 441.00,338.04 L 441.00 355.02 L 516.50 354.50 L 516.50 255.50 L 516.76 362.45 C516.78,369.17 516.80,375.49 516.81,381.44 C517.04,466.10 517.07,475.55 512.50,481.46 C511.61,482.62 510.54,483.64 509.26,485.06 C500.72,494.56 487.35,498.41 471.00,496.08 ZM 562.00 653.08 C562.00,651.89 559.86,651.16 558.17,651.79 C557.05,652.20 557.05,652.42 558.17,653.12 C559.94,654.25 562.00,654.23 562.00,653.08 ZM 251.19 207.97 C245.23,210.11 239.72,213.04 234.82,216.61 C240.10,212.57 245.78,209.50 251.19,207.97 ZM 499.42 643.04 C498.00,639.11 497.87,636.62 498.20,628.26 C497.96,634.49 498.21,638.85 499.42,643.04 ZM 502.95 728.27 C508.91,726.15 514.14,723.35 519.50,719.49 C515.73,722.24 511.75,724.60 507.69,726.46 C506.49,727.01 504.82,727.64 502.95,728.27 ZM 534.94 583.54 C532.19,584.35 529.31,585.46 526.50,586.76 C529.72,585.18 532.76,583.98 534.94,583.54 ZM 508.52 659.70 C506.64,657.41 504.96,654.84 503.41,651.95 C504.06,653.08 504.79,654.27 505.59,655.54 C506.55,657.04 507.52,658.42 508.52,659.70 ZM 512.57 595.77 C512.62,595.72 512.68,595.67 512.73,595.62 C510.13,598.09 508.00,600.48 508.00,600.93 C508.00,601.38 507.25,602.37 506.33,603.13 C507.25,602.37 508.00,601.37 508.00,600.90 C508.00,600.43 510.06,598.12 512.57,595.77 ZM 442.69 257.83 C442.83,257.32 442.98,256.81 443.14,256.26 C442.98,256.81 442.83,257.32 442.69,257.83 Z" fill="rgb(100,206,156)"/>
<path d="M 0.00 462.50 L 0.00 0.00 L 477.50 0.00 L 955.00 0.00 L 955.00 462.50 L 955.00 925.00 L 477.50 925.00 L 0.00 925.00 L 0.00 462.50 ZM 493.19 731.03 C497.97,729.98 504.50,727.92 507.69,726.46 C525.20,718.46 541.14,700.93 545.43,684.96 L 547.18 678.42 L 553.84 677.17 C557.50,676.47 564.15,674.12 568.62,671.93 C587.25,662.81 596.34,646.12 594.68,624.06 C594.01,615.04 589.25,604.93 581.72,596.48 C576.07,590.13 565.80,584.59 556.50,582.86 C553.20,582.24 549.94,581.59 549.25,581.40 C548.26,581.13 548.00,554.51 548.00,452.53 L 548.00 324.00 L 623.79 324.00 C706.41,324.00 705.46,324.06 716.43,318.24 C729.37,311.37 738.45,301.94 745.67,287.88 C747.74,283.86 751.00,270.17 751.00,265.52 C751.00,254.99 747.28,242.68 741.18,233.00 C735.96,224.73 725.56,215.02 717.95,211.31 C703.91,204.46 720.55,204.92 478.29,204.70 C316.22,204.55 258.95,204.79 257.91,205.63 C257.13,206.26 254.99,207.09 253.15,207.49 C239.21,210.47 222.88,224.47 216.04,239.30 C211.19,249.81 210.00,254.93 210.00,265.23 C210.00,291.00 225.65,312.22 251.59,321.64 L 258.09 324.00 L 333.30 324.02 C374.66,324.02 408.95,324.36 409.50,324.77 C410.16,325.25 410.40,363.73 410.20,437.75 L 409.90 550.00 L 394.45 550.00 L 379.00 550.00 L 379.00 614.00 L 379.00 678.00 L 395.00 678.00 C409.56,678.00 411.00,678.16 411.02,679.75 C411.06,682.38 414.80,693.04 416.70,695.95 C417.62,697.35 418.91,699.53 419.57,700.79 C421.70,704.91 434.36,717.41 440.49,721.46 C456.31,731.93 474.34,735.20 493.19,731.03 ZM 324.02 675.00 C338.72,672.21 352.41,660.43 357.73,646.00 C362.20,633.90 361.43,618.34 355.86,607.89 C347.22,591.68 330.08,582.89 309.82,584.28 C303.15,584.73 300.39,585.49 294.13,588.59 C261.68,604.63 259.11,648.89 289.50,668.47 C300.04,675.25 311.36,677.40 324.02,675.00 ZM 686.49 673.93 C707.14,667.55 723.54,649.74 728.51,628.28 C730.37,620.26 730.40,605.55 728.57,596.93 C723.85,574.64 706.95,556.59 686.50,551.98 C679.32,550.36 659.54,550.30 653.00,551.88 C644.95,553.82 632.19,560.20 626.69,565.04 C619.37,571.48 610.94,584.64 607.49,595.00 C605.02,602.43 605.04,621.90 607.52,630.50 C611.00,642.52 619.44,655.48 628.25,662.34 C634.24,666.99 645.36,672.75 651.78,674.52 C659.65,676.69 678.61,676.37 686.49,673.93 ZM 793.64 674.41 C801.68,672.79 812.19,667.86 816.40,663.74 C823.89,656.42 826.97,648.63 826.99,636.94 C827.00,628.17 824.42,621.62 818.84,616.31 C814.80,612.45 803.54,606.77 794.29,603.92 C774.52,597.84 767.00,593.33 767.00,587.57 C767.00,583.45 769.45,578.59 772.61,576.45 C774.92,574.89 777.21,574.50 784.00,574.51 C793.51,574.52 799.49,576.59 805.64,581.99 C809.72,585.57 812.50,585.82 814.12,582.75 C814.77,581.51 817.31,577.93 819.77,574.78 C822.23,571.64 824.00,568.44 823.70,567.67 C822.87,565.49 815.02,559.43 809.50,556.69 C790.48,547.27 760.36,552.18 749.46,566.47 C741.48,576.92 740.08,593.15 746.10,605.14 C748.03,608.98 756.59,616.98 758.79,616.99 C759.49,617.00 761.14,617.70 762.44,618.55 C763.74,619.40 770.87,622.06 778.28,624.45 C796.90,630.45 800.94,633.24 800.98,640.17 C801.00,643.27 800.31,644.44 796.51,647.79 C791.15,652.50 786.48,653.54 777.74,651.95 C769.53,650.46 764.58,648.42 757.71,643.66 C752.76,640.23 751.73,639.86 750.60,641.08 C746.49,645.53 738.00,656.15 738.00,656.84 C738.00,658.02 742.31,661.89 745.80,663.82 C756.42,669.73 761.25,671.89 767.00,673.34 C779.06,676.37 783.14,676.54 793.64,674.41 ZM 241.16 630.06 C240.97,605.62 241.11,583.25 241.48,580.34 L 242.14 575.05 L 258.82 574.77 L 275.50 574.50 L 275.78 563.82 L 276.07 553.15 L 232.57 552.82 C208.64,552.65 186.80,552.66 184.03,552.85 L 179.00 553.19 L 179.00 564.10 L 179.00 575.00 L 196.53 575.00 C209.67,575.00 214.17,575.31 214.47,576.25 C215.35,578.93 215.94,603.08 215.97,637.69 L 216.00 673.88 L 219.75 674.29 C221.81,674.51 227.55,674.65 232.50,674.60 L 241.50 674.50 L 241.16 630.06 ZM 530.50 673.63 C517.99,669.55 511.49,664.82 505.59,655.54 C499.11,645.32 497.73,640.24 498.20,628.26 C498.57,618.91 499.02,616.65 501.64,611.00 C503.30,607.42 505.41,603.88 506.33,603.13 C507.25,602.37 508.00,601.38 508.00,600.93 C508.00,600.48 510.14,598.08 512.75,595.60 C520.15,588.58 535.06,582.04 543.75,582.01 L 547.00 582.00 L 547.00 588.35 C547.00,591.85 547.29,597.47 547.64,600.85 C548.18,606.00 548.59,607.00 550.19,607.00 C552.90,607.00 561.96,615.77 564.12,620.50 C566.67,626.07 566.64,636.83 564.06,641.88 C561.68,646.56 556.86,650.88 551.24,653.40 L 547.00 655.30 L 547.00 665.65 L 547.00 676.00 L 542.25 675.96 C539.64,675.93 534.35,674.88 530.50,673.63 ZM 546.77 630.17 L 547.04 607.00 L 543.99 607.00 C534.08,607.00 525.02,617.53 525.01,629.07 C525.00,635.41 527.69,642.29 531.72,646.21 C535.47,649.86 543.58,654.24 545.50,653.64 C546.12,653.45 546.60,644.50 546.77,630.17 ZM 383.69 674.36 C383.31,673.98 383.00,646.74 383.00,613.83 L 383.00 554.00 L 398.25 553.75 C446.56,552.96 458.64,555.52 474.11,569.82 C481.84,576.97 487.96,587.67 490.04,597.71 C492.65,610.22 490.18,630.02 484.71,640.59 C479.94,649.81 465.20,664.21 457.70,666.98 C455.94,667.63 453.82,668.52 452.99,668.94 C449.71,670.63 440.15,672.83 433.50,673.43 C422.64,674.42 384.46,675.13 383.69,674.36 ZM 436.45 647.92 C448.37,645.03 455.22,639.39 460.14,628.38 C463.31,621.30 463.32,605.84 460.16,597.85 C457.33,590.67 451.31,583.82 445.24,580.85 C441.05,578.80 438.72,578.49 425.25,578.16 L 410.00 577.79 L 410.00 613.73 C410.00,633.49 410.27,649.94 410.61,650.28 C411.72,651.39 428.37,649.87 436.45,647.92 ZM 441.00 309.26 C440.99,265.38 441.08,263.20 443.14,256.26 C444.87,250.41 446.32,247.88 450.73,243.01 C453.72,239.71 456.60,237.00 457.12,237.00 C457.65,237.00 459.45,235.99 461.12,234.75 C463.96,232.65 465.17,232.50 479.33,232.50 C492.09,232.50 495.09,232.79 498.23,234.35 C504.35,237.40 510.38,243.42 513.53,249.64 L 516.50 255.50 L 516.50 305.00 L 516.50 354.50 L 478.75 354.76 L 441.00 355.02 L 441.00 309.26 ZM 306.20 651.33 C296.42,646.51 291.45,632.47 295.48,621.06 C298.54,612.39 303.72,608.04 312.77,606.53 C327.66,604.05 338.37,619.74 333.90,637.50 C332.58,642.72 327.40,649.11 322.63,651.37 C318.26,653.45 310.46,653.43 306.20,651.33 ZM 656.72 650.00 C649.17,647.63 644.86,644.23 640.08,636.89 C634.35,628.06 632.58,619.78 633.90,607.97 C635.16,596.67 638.37,589.47 645.01,583.00 C651.42,576.76 658.05,574.47 669.21,574.61 C676.69,574.71 678.74,575.13 683.58,577.59 C689.47,580.57 696.81,587.98 699.52,593.68 C702.04,598.99 703.26,607.98 702.66,616.76 C702.19,623.70 701.51,626.14 698.45,631.96 C693.64,641.12 686.04,648.32 678.97,650.42 C672.13,652.45 664.02,652.30 656.72,650.00 Z" fill="rgb(253,253,252)"/>
</g>
</svg>